<?xml version="1.0" standalone="no"?>
<!DOCTYPE svg PUBLIC "-//W3C//DTD SVG 20010904//EN"
 "http://www.w3.org/TR/2001/REC-SVG-20010904/DTD/svg10.dtd">
<svg version="1.0" xmlns="http://www.w3.org/2000/svg"
 width="224.000000pt" height="224.000000pt" viewBox="0 0 224.000000 224.000000"
 preserveAspectRatio="xMidYMid meet">
<metadata>
Created by potrace 1.14, written by Peter Selinger 2001-2017
</metadata>
<g transform="translate(0.000000,224.000000) scale(0.100000,-0.100000)"
fill="#000000" stroke="none">
<path d="M10 1495 c0 -3 13 -40 29 -83 16 -42 50 -134 76 -203 44 -120 48
-126 75 -127 22 0 31 6 41 31 7 17 12 38 11 46 -1 9 -28 88 -61 176 l-59 160
-56 3 c-31 2 -56 0 -56 -3z"/>
<path d="M315 1483 c14 -37 107 -290 122 -333 20 -58 26 -65 58 -68 20 -1 28
4 36 26 18 46 17 49 -46 221 l-62 166 -58 3 c-52 3 -57 1 -50 -15z"/>
<path d="M669 1473 c-11 -31 -6 -92 12 -126 19 -34 47 -55 140 -103 93 -48
114 -72 107 -126 l-4 -34 49 0 c46 -1 48 1 55 30 3 17 6 39 5 49 0 9 -1 28 -2
42 -2 42 -65 100 -156 144 -89 42 -107 62 -107 117 0 34 -1 34 -44 34 -39 0
-46 -3 -55 -27z"/>
<path d="M1174 1118 l1 -383 50 0 50 0 3 383 2 382 -53 0 -54 0 1 -382z"/>
<path d="M1483 1443 c29 -53 32 -66 32 -148 0 -73 -5 -100 -24 -142 -13 -29
-28 -53 -34 -53 -6 0 -7 -3 -3 -7 4 -5 32 -8 63 -9 l54 -1 24 47 c49 96 46
252 -5 335 -21 33 -24 35 -80 35 l-58 0 31 -57z"/>
</g>
</svg>
